<?xml version="1.0" standalone="no"?>
<!DOCTYPE svg PUBLIC "-//W3C//DTD SVG 20010904//EN"
 "http://www.w3.org/TR/2001/REC-SVG-20010904/DTD/svg10.dtd">
<svg version="1.0" xmlns="http://www.w3.org/2000/svg"
 width="144.000000pt" height="144.000000pt" viewBox="0 0 144.000000 144.000000"
 preserveAspectRatio="xMidYMid meet">
<metadata>
Created by potrace 1.14, written by Peter Selinger 2001-2017
</metadata>
<g transform="translate(0.000000,144.000000) scale(0.100000,-0.100000)"
fill="#000000" stroke="none">
<path d="M648 1206 c-3 -14 1 -34 8 -43 7 -10 14 -30 14 -44 0 -15 7 -32 15
-39 17 -14 78 -17 114 -5 16 5 21 4 17 -4 -4 -6 -3 -11 3 -11 17 0 32 38 25
65 -9 34 -41 55 -86 55 -27 0 -41 6 -52 22 -15 21 -16 21 -16 3 0 -18 -2 -18
-19 4 l-18 24 -5 -27z"/>
<path d="M710 1043 c-59 -9 -72 -15 -90 -46 -39 -63 -21 -133 53 -211 39 -40
46 -53 41 -75 -20 -86 -89 -132 -199 -132 -59 0 -65 -2 -53 -16 11 -14 10 -15
-12 -8 -14 4 -37 13 -52 20 -38 18 -35 4 3 -19 38 -22 33 -30 -10 -15 -51 18
-45 6 16 -32 50 -29 65 -34 118 -33 125 2 175 16 214 58 33 35 60 119 55 170
-3 29 3 58 22 100 35 77 42 172 17 201 -28 32 -72 46 -123 38z m-10 -496 c0
-11 -50 -60 -56 -55 -3 4 7 18 22 32 29 26 34 29 34 23z"/>
<path d="M39 353 c-4 -41 -12 -69 -21 -75 -17 -10 -18 -38 -2 -45 7 -3 20 1
28 9 15 15 86 13 86 -3 0 -15 27 -10 34 6 3 8 0 20 -7 27 -7 7 -12 29 -12 48
l0 35 -52 3 c-29 2 -53 -1 -54 -5z m69 -51 c0 -25 -3 -28 -22 -25 -18 4 -22
10 -18 29 7 35 39 32 40 -4z"/>
<path d="M184 346 c1 -8 7 -20 13 -28 9 -10 8 -18 -3 -32 -31 -43 -4 -50 38
-9 l28 27 0 -27 c0 -20 5 -25 20 -24 12 1 20 8 20 19 0 9 5 20 10 23 6 3 10 2
10 -4 0 -17 30 -41 51 -41 20 0 20 0 1 25 -18 23 -19 28 -6 53 12 24 12 27 -2
30 -9 2 -22 -6 -30 -17 -19 -26 -30 -27 -37 -1 -3 11 -12 20 -21 20 -9 0 -16
-8 -16 -20 0 -11 -6 -20 -14 -20 -8 0 -18 9 -21 20 -7 22 -44 28 -41 6z"/>
<path d="M390 353 c0 -5 11 -26 25 -48 35 -57 32 -82 -7 -76 -5 0 -8 -6 -8
-14 0 -21 43 -19 62 3 24 27 77 130 71 136 -15 15 -35 3 -50 -29 l-17 -36 -18
36 c-12 22 -26 35 -38 35 -11 0 -20 -3 -20 -7z"/>
<path d="M557 353 c-2 -5 -3 -28 -3 -53 1 -36 5 -45 19 -45 9 0 17 5 18 10 3
36 52 42 57 6 2 -14 9 -21 20 -19 13 2 18 16 20 56 3 47 1 52 -17 52 -14 0
-21 -6 -21 -20 0 -16 -7 -20 -30 -20 -16 0 -29 3 -29 8 3 20 -2 32 -15 32 -8
0 -17 -3 -19 -7z"/>
<path d="M719 353 c0 -4 -1 -28 -2 -53 -1 -38 2 -45 18 -45 16 0 20 7 20 38
-1 35 1 37 33 37 52 0 34 24 -21 28 -26 2 -47 -1 -48 -5z"/>
<path d="M846 344 c-3 -9 -6 -25 -6 -36 0 -12 -8 -27 -17 -34 -25 -17 -8 -30
25 -18 21 7 28 17 30 42 2 24 8 32 23 32 16 0 19 -7 19 -40 0 -33 3 -40 20
-40 18 0 20 7 20 55 l0 55 -54 0 c-40 0 -55 -4 -60 -16z"/>
<path d="M990 305 l0 -56 29 16 c17 8 33 19 36 25 11 17 23 11 27 -12 2 -13
11 -24 21 -26 14 -3 17 5 17 52 0 31 -2 56 -6 56 -3 0 -22 -11 -42 -25 l-37
-25 -3 25 c-2 17 -9 25 -23 25 -16 0 -19 -7 -19 -55z"/>
<path d="M1150 305 c0 -48 2 -55 20 -55 13 0 20 7 20 20 0 11 6 20 13 20 7 0
20 -9 30 -20 16 -19 47 -28 47 -12 0 4 -7 16 -15 26 -13 17 -13 22 1 37 9 10
13 23 9 28 -9 16 -35 13 -35 -3 0 -8 -7 -17 -16 -20 -21 -8 -34 -8 -33 2 4 22
-3 32 -21 32 -18 0 -20 -7 -20 -55z"/>
<path d="M1306 308 c1 -29 2 -54 3 -56 0 -1 19 9 41 23 49 31 52 31 48 3 -2
-17 2 -23 17 -23 17 0 20 7 21 45 0 25 -1 48 -3 53 -3 4 -25 -5 -50 -19 l-45
-27 4 24 c2 18 -2 25 -17 27 -19 3 -21 -2 -19 -50z"/>
</g>
</svg>
